<mxfile host="app.diagrams.net" agent="Mozilla/5.0 (Windows NT 10.0; Win64; x64; rv:139.0) Gecko/20100101 Firefox/139.0" version="27.0.6">
  <diagram name="Seite-1" id="v4JFyk29I0shGeDNvBs6">
    <mxGraphModel dx="1924" dy="599" grid="1" gridSize="10" guides="1" tooltips="1" connect="1" arrows="1" fold="1" page="1" pageScale="1" pageWidth="827" pageHeight="1169" math="0" shadow="0">
      <root>
        <mxCell id="0" />
        <mxCell id="1" parent="0" />
        <mxCell id="6F1ASgsPQzpzGPw3t6Er-16" style="edgeStyle=orthogonalEdgeStyle;rounded=0;orthogonalLoop=1;jettySize=auto;html=1;exitX=1;exitY=0.25;exitDx=0;exitDy=0;entryX=0;entryY=0.25;entryDx=0;entryDy=0;" edge="1" parent="1" source="6F1ASgsPQzpzGPw3t6Er-2" target="6F1ASgsPQzpzGPw3t6Er-7">
          <mxGeometry relative="1" as="geometry" />
        </mxCell>
        <mxCell id="6F1ASgsPQzpzGPw3t6Er-23" style="edgeStyle=orthogonalEdgeStyle;rounded=0;orthogonalLoop=1;jettySize=auto;html=1;exitX=1;exitY=0.75;exitDx=0;exitDy=0;entryX=0;entryY=0.75;entryDx=0;entryDy=0;" edge="1" parent="1" source="6F1ASgsPQzpzGPw3t6Er-2" target="6F1ASgsPQzpzGPw3t6Er-7">
          <mxGeometry relative="1" as="geometry" />
        </mxCell>
        <mxCell id="6F1ASgsPQzpzGPw3t6Er-2" value="" style="rounded=1;whiteSpace=wrap;html=1;fillColor=#0050ef;fontColor=#ffffff;strokeColor=#001DBC;" vertex="1" parent="1">
          <mxGeometry x="-803" y="270" width="150" height="100" as="geometry" />
        </mxCell>
        <mxCell id="6F1ASgsPQzpzGPw3t6Er-6" value="&lt;div&gt;Variance&lt;/div&gt;" style="text;html=1;align=center;verticalAlign=middle;whiteSpace=wrap;rounded=0;" vertex="1" parent="1">
          <mxGeometry x="-790" y="268" width="120" height="30" as="geometry" />
        </mxCell>
        <mxCell id="6F1ASgsPQzpzGPw3t6Er-21" style="edgeStyle=orthogonalEdgeStyle;rounded=0;orthogonalLoop=1;jettySize=auto;html=1;exitX=0;exitY=0.5;exitDx=0;exitDy=0;entryX=1;entryY=0.5;entryDx=0;entryDy=0;" edge="1" parent="1" source="6F1ASgsPQzpzGPw3t6Er-7" target="6F1ASgsPQzpzGPw3t6Er-2">
          <mxGeometry relative="1" as="geometry" />
        </mxCell>
        <mxCell id="6F1ASgsPQzpzGPw3t6Er-7" value="" style="rounded=1;whiteSpace=wrap;html=1;fillColor=#0050ef;fontColor=#ffffff;strokeColor=#001DBC;" vertex="1" parent="1">
          <mxGeometry x="-563" y="270" width="150" height="100" as="geometry" />
        </mxCell>
        <mxCell id="6F1ASgsPQzpzGPw3t6Er-10" value="" style="shape=image;verticalLabelPosition=bottom;labelBackgroundColor=default;verticalAlign=top;aspect=fixed;imageAspect=0;image=data:image/webp,UklGRkgBAABXRUJQVlA4TDwBAAAv24BEEIWDyHbjRpzESZzEKaiOfqvjGb+eVsT8O5QkWWkWmYKFuJzk5QMM2tT+q/1X+6/2X+2/djjK3vpZU16g7Mwpro9TtT7EUz5Omha4Mfd5X6O4zkZTnPoxu3Fy/D7SiWiOf9ecY/vvbASc/M44OXM53lprI5MTH8fE8TjZWzHRONlbOXkUJxZGMz7jrPvtnQUwHP3B5QXqzpKVx6NyKZz8OMp7gIgUxAogBbFRoJwzQqCaM2KgmDNiIAPljDJwqJVoQFAp0YDAjh/pI0IVTaBQokFBoSKKgohUERUoOhyBw6giSoNRA4IGXjcgeJArDknEh9SA8AKq3wcEK/p9SIjSAToFqd8XBR7a61C4t9epcHeowNRez4N2GRiiAULBYQocmH4UJx2mXWz/RxFjNmhT+6/2X+2/9h0y;" vertex="1" parent="1">
          <mxGeometry x="-523" y="275" width="78" height="97.5" as="geometry" />
        </mxCell>
        <mxCell id="6F1ASgsPQzpzGPw3t6Er-11" value="SQRT" style="text;html=1;align=center;verticalAlign=middle;whiteSpace=wrap;rounded=0;" vertex="1" parent="1">
          <mxGeometry x="-513" y="270" width="60" height="30" as="geometry" />
        </mxCell>
        <mxCell id="6F1ASgsPQzpzGPw3t6Er-15" value="" style="shape=image;verticalLabelPosition=bottom;labelBackgroundColor=default;verticalAlign=top;aspect=fixed;imageAspect=0;image=data:image/png,iVBORw0KGgoAAAANSUhEUgAAAfoAAACtCAQAAADy4HU5AAAAIGNIUk0AAHomAACAhAAA+gAAAIDoAAB1MAAA6mAAADqYAAAXcJy6UTwAAAACYktHRAD/h4/MvwAAAAd0SU1FB+kGDxEGKSOw87EAACJiSURBVHja7d13gJ1VnfDx73N7mZo2qZBGCT0UIaACIqAUkQVU1Bex4quuwi7KClaUF1FXBeu6K6wNV3AFBRGkCNKkg3RIID2TBEISMn3u/b5/5GaYmWQamTslcz73n2Tuc5/7tN895znnPL8DQRAEQRAEQRAEQRAEQRAEQRAEQRAEQRAEQRAEQRAEQRAEQRAEQRAEQRAEQRAEQRAEQRAEQRAEQRAEQRAEQRAEQRAEQRAEQRAEQRAEwci0yuHegiAIhszyLgH/Ygj/IAjKLxruDQiCsWihD7OQRdSzghZmMp+DmM/MEI9BsONZ6WUe6wxrHC9i3ConmBCP9k+huh8EO54LrbPKpLiX5/tl322lWGta3M27QtgHwY7m34zEavf1vwRY7aeMmzYvJvyEy8oe9onhPgSj3zNuRFqp5Tnq2EieBM20kyROgTgRIEUkRowGEkymgXWkSFLNvl3u4h7xURrJ8mbmRovdfId3lU20MJU9mB0tdadw1zfKRWRpZgNn8ZEIoC563mtZTkSeNm7kR+EMj3QrPNVKMSVOM2XMlAkR8+bEmDHjJkyYNGnShDkRJ1prte9zlbBagPt8n7UmzFjtG/yFusLvuLOIkTkP94ZQ9RuRVg/ovHzRuDGnen3Hp+o9SqwyI9YNwTkOJf12ipjGq9RQpJX1tFHBq0AFsAlIU6BIkYg40I5AFQk20kID0EIjUBfBFX6cxygSo5lmHuAWFnAxV5CjlmYqeZm7uYLlTh+CcmC1dR3fcrcvM4WDQunTi7oIfu0cdmZKP47TsUxgHElO6Fi2kXbqWA1Uk2OlU8t8tEPQb6ep0V3ezvMUydBALREHMZskDbSSIEmKNgpAnALNNLOYF0gwnk0UGEczcyKA6z2H5zmJWv7BP8gT51HO5SZmcgRruZ4m0qRYwsay70+9k6MtIX+Lv+TDrOUkFjp3DIR95x+7gbnHd7KGXfmGB3Nkxzqeco9trO+NEcCaTiV6G6soAFXIwSEkR4d/FxPmjEw431/0WkG7yQViwqxY7cmlZR/0OE/1fl/wYDESE+Ix/lX4m1PFpLXO9OYhq+A/5oecZFZM+SnDyLGebB5hd5sTrTBj5Hz/s9Ox6l/F/w7nihXuLF4dqvejQb0buItryJPmFR7hN9zo23osMY6NHvYSfkuRNC20lf46nZ8xJfodT9hGDc00k2J//oUjI2ghQYQUqWbCkOzRCn/Hh3kEqeAM5nMMs8ZAOQ/wvH3FXKzb/1u411YO4zru5Hru4EU+yon+hGmlRrr+fOvlrANiLOF0ThsjR3oHcKMTOxrvqjzDhQKs2MYV9IJwrbPEtBM93qe6LPNna42bNHKuPyy9c0VpEEfk0UNS3j7il91HxDf5TZ8YQ2X8793X7IBfE5zpLwV40rNNOsecc/1dv4/bNebF8aacV7puglHhBS81IWbNiXP8jr1V7J7yHCvFOo/rttT3rBHjTnF/7xZguReYMGnOCt85BJfEC37W8eIUT/WaMXQJrhFustJ4H6+o2ytrzKjU4w5wsTPErLP6uM3b4kUPNm9MHO9fhuh4h+r9oJgdPeMD/AppJckirmR+D0sudmZUyeH8DNhITZf3VnsR60nQTgNv4bAIoInFVPMyRSo5jGvLvic/4yrWAftwPvuPoarmpAgaOYJXaKedIgIx4hSQNHGagQTtxIhopZ0c1bSxniJJckzuWM/no5/7AZLUcy6POL/XI7jCadG3eZQ8DezJFUwb7oMQDNTl7ivmxJy1fqaXX+013u+bzRnvVtI/50nGTRlzhj8qvfOY88S0Kef4m7KXBL91nhjz7WN2FPhrNbTX/rWmj2PR/TbuG8atE0+yt0/Wq982ZtaY+w7BuQ3KYKmfNWtcrBGndGnF7a7ej5s21q3CfqdzTYox9/SvpXcut8aMteLhvlDmC+M+jzcpTvDScAkC3Z9+32J1n+3zRxsX836p1+P4X+J4cbZ/Dsd7tLrJt4kZ01aKB/lQL6fyu85zrh/ossSVps2ICY8ojcBe5jdMimkz/l+h71Jne3zHSqvMe7L39PgtK8fM5bn8de7pSuE2004wY53397iW+9zbOnE/r9tG7SIYNX7pLBFrjJnwrF5P4dbh83WxWqz2g6X3Fnu6kZhxZz9b5gvir75dTDrJK7f7m3aki3e5i0t7s+0f3BXb/OvppsSkn+jhSKz2cDFytn/YgY7VmLTUc0XEaitM9LMFd7NnPF3Mi1O9qPS5p93FGmvE/bxKWOZtZbtELnKicRMe6hKhvo8frMt9i5Od6Sl+0Tu6LfugZzvfae7mF0fxBb3an3mMM53tG/2EV3Xbk6f8koc4w308bpsdbdebMW/SGT7c7d16YZXnmxfndBqBD/AjL/Dvo/iYjVF/963mxUqrxKNKHW/9cZt7GTMm7ub/dIzUO8RqEQ/2Bh/zVCf6zbJcFPf4TjHjDL8q9B70f/BgMeFEs2LGU7uMFPyKM8UKJ5r1NFeM0kv4Dy4Qc6bMmBMn+rNOe/ID9xRxqrjbVuMVVwkrfIuTxKh0PLv6vphxJ2/s0tR3rzljftNy3sJB6LIbdIdEP/VRmmmhlTpuYxZL3LlfXV8vs5SIAgmqmV76m+TYQDUZnuFsZnAr08o0Km8Ri4EiNSwAYHKP2/xDv8hzpGlnLbAzS/gLszpG51/glawkTpK1xNiP4tAd+kH0Q7/MP4BWkjRRRQ1rubajC+4av8yTjCPLCiqo3Wq84pQIpkVf8jbytHDHVmv/g/9CliZiXM89fMoqmohYxTE0AjVMGkNdpTuI5X7YilIVP3KSP+743e49PcL55kw5QXxvp0QKn7FGjMyYEA/1L2UqOz9njQnjnuY/el3/XzzUjDhNrDMpVppxZ+93pfBz55h2vFhjhfiTUVjOL/dpd7e61LKOk8S0aVOlto6H3cmEU8SsGPPCHu757zBl0qypjp6YzVZ5urFS82ztVoN98NqyH7PY9q8i6Gp69CEOACbSjjTwK7bcpc3o5Re83gQVSILpzOyogK30TI6kjhQV7M0H+QHHRNPKUA486nI20k7EdMb1stwir+Qe8pzDxRxDK21M4VWyrOQRpvCQ3+AlWmimlhY2sRv7Dc8p2C7TozN4hhY+zo2cS4aXSBAjRit3AEv8fyylSBHIAkWmd6Sz7FpC1zGFiBZaWdhl/VdzD0XixGjhFWLdXhOpHu4DELw+33G8edOlhrnPbNdv9xqf86pO3Trl8CcPF2OO97u9fs+zfsAqj/Ve4adONWGtWCle6L2eaiTO9Ute4iFmPHYUZnxb7TLfYp27er9wn7NLNbYq8UCX+i0nmRff5rMe5TQP8dYe9/GIUjqVj3dZ4gQxbsK0FVZto6QPrfmj1POeJSbMW2ncnTrG141UV7inmHXXPvsbVvqnUuPkY+4v4jQj8RRPM2vaGX7ZRUJ92YcSldPN3lTa+lNKP2xpq5zuZ60TJ/rR0nMRd3pnL3t5hpEY89BOyyzyVPdwN2vNm3Wak7u9Fnj7KD5uY9yd7iPmjDlOfONWHTf9MXS93Zc4Vcy6/4BqFO8r3ZkmSw8JJcUvuqjTGhaP+gv4EmvMiJiwyrRx8ZB+7tW/mTBpwmld2veX9Prpp8Pz9KPXm6LLPJ9NQAPwAre+jnXURbDGoWjL3UAzEFFFbR9Ldk7NOZeJrKeRiaylwDraeBfHlHIBbbZ9kzf80YY+L9DuMdJCRIoG3kL/+kz6shsxmhnPK7STYCNpDuCnpN0tAvrIKFRHmlYKrOelTn/tfbvmDcHZDkFfNifwAL+lnRYqiNjwOtcyqSPwX38yp76s8SLagRhVpPpYtnM23qlkWUOcAjFqaORAvsjeg7aNT3sW99Hax1JbF4xxEmS4lMHJHLwLtayjQJYGoJIiFzCeLY2pvScRqyVFC1Lg5cE6KIMitN6XzezoA8whDbTT3unhy4GbNIAsLK9HEw20AgWStA9kD6minTjriFjPJC5i76j36mu9D/iQT7i0H5XYeVGclq1at/t65amghQ2keL0h33Xb9ox2Isd62siyjjYuY1/623+SKYVXgsbtODuDLwR9GU2hQDOTaeY4PjWCB1xsopE2UjQRp6ofy2/pj55FHXFaSZOgyFHsBfRWff0fj+UgjmEvftrLdM1b2gGec3OXWO8vu72aSQITaHjdR6P7j8UuNJKmhiZgGgsGcMsylSbaqWDTdmxNOYTqfRl9gZepoZ7j+QBXDOBzz7mJClaR58BB/amotxW2UQJKgQIASfrTjjQp2pwAYm50qjk2IQlgMa/08blFvESW9WSZ1Uuy6C1BtWt0sx8ZcKnUzGTWIYe8zmO0yu5btjuzeYE1xEmzijUDWFeRCCgw0uaJDUFfNt/zc7RSwRTO5IgBnPVHPYMHyBHxnkHbluX+mivYhcP40jbejZUug4hCv4IeYFoEz/hh2pFWYqRZ1Ge7xVOsAQpMYla/vuPoYYiVrX+MFrICiBPRRhvLBrCudiIiBJJDvyO9CNX7Qbf5OexbvIxKQM4aYIbTl3iWApvYNGjlw01+lG+zkXG8ss3M+WkqSpdn44DGyn+TRTQBEW0kWMXaXpde5BryZEgzh9wg7Vn5fcc/00KGHO20keDZAXy2kRgJisT6bB4dWqGkH3TTI1jqB3mBKjK8lQ/xlQF8eoW/4hXyxJnMvoOwNc95OR9hGTkagRnEt7FMmiwRlMqy/rrUi1lDRII4zUgbS3qdnWVO9EcbaSPGBA4ZWfXdHt3kmawlQcSrbJ6v6B8D6EXZgES0Ex9hJX0I+rK4hL8BG5nP2QNsRY5Yzea+/V2ZsZ1b8Zg38QbaaQKyRBTIkd7GctOj85QiEYV+Nznd7IdpoEiGttItQYwlNPf6mXeMklDf4kHPYxURMVpIElGgyCLW9fvzaynQTpEc+eHelS5C0A+6Fd7Gx4gBe3Bmp0mO+mdqdLuHEBGngn22aztu8dv8kTxrKRAjQQOQ6+GevZY8rbTyaj8nznrCb7KUCRzIKhaVagcRT9PUw/K/tp41ZGiinRjHsWcZOyAHyxNeyq1UsBvNLCaiSCMx6gdwV7+GFiBONeOHe2eC8vqbu5s2ZraPdFnl9Rvniyl38VgPELHCCg/t4fGQnzrNCnH3jvQdvVnp+6ww4wxv9DQnGjdpWpyxVQ4dgHpf9BAT0jGc9cejYnDuWaV5DL7r950pJkpJS39WSnLR9zzynxCTZt1jCOacH4gR1JC3slOSpnLnDimfF72MZ2hhHEdx/gA/+xt/4Nc81895rp/s43m3vuzOZGbyJe7iP3kjCSI20UKyhxNeyS60A20s6XGNN3iCZ3qVL/gVfs8mJnIBe7M7BSLayFLFKh4C4Bp39Qh/X9r+ydGs6Ku8gzQRkGJmqT9/JPq1p3uEf3Cp7/KX7EQT7+fd7MPLpMjTRoaIK5kUwTKPY2//u9dz9Aw5ClQys9eHqse45S7yRV/LQlo/CkP/36wTJzmlH5nju/60PeOHOsaYJJ3iedu59094X2kNnzdnQox7WLeEDlv81beZNW51j9+6wn8VcYqRVSbFTwrwC+dbUyrBcYHPe68nmjDrjztN2VXvZxxv1pRxD/fxEXteP2GVGSe7uzXieE9wc/rSvUyLWGnCnb1OONoK457Q657sYsxI/NoI298RcE//gDdzH88wiTfQxDhyfNYjOS6C9n6nmhoprvUjvEyMIhdwfK9b/pAX8i5O9KMdzVu7R39xHXeziTjNpDrd0a/0NhZRZBM5st3Wszm9Q4wk7czkcF5rPd+r418J4kSAPfbCz2Y6aVJs5EX+4T7b2PLVLCZLMw1Iko0cxsf4IbA3SdZTQ4JGijzNqSRYSjsnsjevTdQ8OfoX22kiRZF51A33aerBCk9iI3HqeZUcMJ4PMDVa5ozoUJ4gV2rDb+SjHOYDtDOBi7m+x7Xd5VspkqOJw4d7x0aShV7k/qaNxHEiji/d91X5Xp8ZYb+Pfbvdo8QKM763z23/nYiTO6ap3OxaU2Ja3N17O965xwVivnRsur+yxkq1g9N8bJvf+3lzxsWEb+qhpIcfOt2ccQ/oIV3TVe5thWkxMuk4r3DLKPtzTJi0xnjpzCHO3+p7TjYmJk35/RF7Xpe6txkppSed5087tvQqscq4FSY6rtUZfr3XPfmKmDTvAS4ZYXs8rPf0T/JtHiaGTOfL3M3VJGlmEkkauZWfDfexGaCn/RW3kqLIQVzU59KvUMs4du5W6j1HGxAnwzwWdCpvIyBBcpu97DFiQESM2Dbfh0Jpbraol9M9n8k0kmBlD8NPGmiiQCsVyAFcygejLaPsT+do2lhPjHFk2cQ4Dud7HBl1buq6z8VICpnI3OE5Pf1wG4+TIEGMIjM5m4+VzsCLviv6CBUUiFEJbCDFVL7HF3qty91CCmjghEF6yHfwDGv1PuIVaniVCVzOMVG9h0X3eyxNtBFnNVezyDkj7HD15rf8mYhWZvOvfc7n/qz/TiMtvNxt2MYasrQCyS599LP4Z05EmshvFbZdq/eTtvlt8dLYPnsZZDuL/XiEAq/yGI+79QOyG8kAMJFDOJGjO73zhugaMzzOYtZRwR6czMmlqS9fa776B+uIk2Eju3Rk+h15NrIXT5BgAgdzOu/p2PpZEXyWFu7mBWAyaY7kYyxgtQ3M7uFM3+U7idNEFCr3Xd1ujRjztI5rcaXvKGVjSZvtNRXRSHOF+xpZ41S/Zt/dOXd6oOPF/TrSMgE85UnGxITT/I9B3PfzS7cACd/cY/UefudBxk26qz/fxjIrfdQ7fLRbHv/XZul50hv8k0+W/r/l1mxLZt1PO7E0e88nXTViz+oaH/MR7/NeX2tC7ry1S7zN+/1bKR9x748Hn2nemJHvGbWZ/8vkT2ZNWeOvOx2Ws0szvyLdZv8YyR7yHSLGPdMnSvnToKeZ3xZ6gTjRyL19sNMSdzrduFjhPt4yiPt+XqntOenhvQT9Cj9hWoz5+UG/Cz3FWnGccS8ZNecUOvevbDt12Yoe+zqyVou5XtJmjll3eU+XKf7q/Zo4UcxY2dHlNPKdZSRmPbIf6SDv9lOl4MZ9umSZv6LUUBTzTYO65xeUMrRXeWSXuWi6+1/3NCHu3WU2l+13lwdYKcacMkaC4IxSc+xpI3Jvy35Pv9gCa2mghiySId9l7pQ3drkjWuNEHmQKq0iQpo5pw310+umHfgtJAU/waU4xDbRRIE6Clm7LLuE91NMGJEhR1WlU9kp/SCNF4lR23Pdu6bJ8yo2MQ+Jb3ZXHiCgQUaSJCrbdBpIgT4wGNtJARS/7cQDv5woW8zh/4GH3H7T2lKWsopk0BcaXWgZ2XMudHl3p+4E00/kCVw/3Bm1D2YL+dh/iYZ7kIBI0shGJyFLBOE50Dw7nuFIihs6fmRQt9ElWUUUDG7iA6aOiGe8Wv8hicsSR9dwEWJoM4bUmtNe0AymypXHodgr6jTxOkWoaqWA+vwG2tI8/4le5gQQtNG71wEyWBtpIUKCC9/CMu291zFZ5IS+TAGJMZFMvezIzet77aGQlfyXiMfeNBicvXz1txIEiB1I5tCdnyE2PbvUk0lSwlq+w76i4ggfFk37V2SbMdvTb1pi10lopTc/02oRHXUelfc58qXr/prJP4zc4HvA06WiHSJks9ZpHxkujtbu+4mLKuHEx5tGd9vFB9yylk57nX7pMInmnbxUzVllhsttr8zixicbE0zuNgevsPOOlcePH9dk4+lePMmHK8X500EbOnW11aUsvsc0X/O0OWMmvLzX+3eRcp5kwKtNEo4OhDCX9DX6Yv1NDkiYm0MwEEkgLrwJTWUWMCbzU0VvbOcHzPb6PBmaxlL24eJRM4/cofwbG8wpJCqRpJiJOjDgRUtyq57wApYdRIyZ2uYF5hVVEtAHVTAVem0Syij1ZSxuNFKjptr4kRdpoo4pa5vXwCGeKNO0ksIckGp0dGd1iO3fQwjW8xH0ePAhnoUALRXK08gpP8wt+xWE86OCmAhtum8/VlX6bheSo4T18bofav15dZa04yZRJJ4vv9jof9iEf8tOmTJkX887cZvvwMSbMi2/oNBZqpPuomC9NZlxltM0xc11L+rQVxs2YttKjOu3nr00aM2e+NJ7vSv93UI7CCs8xLSas8OBeG/K2eNB3O0nEvf1+l4bW1+cSc+J4I+e6q1Vm/PQIe+5sMPzdz5amLZ08gkcdwqCX9Hf5DnKsZz3VrCXLXzgm+i2wwqlMpp0fU0MDDRy/jVFKl3geSbJkOZv3jppfyc9xPFlaaWQS7WwiUxrlXiyNgit0W76JLGmayBPRyM7s3/HOBuK00UqKNh7yXj7NTvzZt2/3kXiRFaQp0kYTa/tMXglwYAQX+7+8yOP8M/O5zFP6nfZ5W/Zhbx5lI7IQeBPHccoO9tzZ036Od/ASEHEK5wxi9v8Rb5Ufs0KMrBCn+R1hS1/mauFR55TKu/O3+iX8uUkxY7yjJ3noJnUaCdZ4meNNiElzzrLKmGf1Kz98z57yXr/ncSY72hyyzvRCr/aRfqz5Kb/gHDHjGT2M6e+/S32Ldc52X8/p9EzBjqLeh5wk5jze3+xwe9eHh50gJq01Jk7v0me9uVnuKCtNWLPVzJx3mjBhxgn9qn7umG4vNQnWWinO9EKf265j8WMnb/P2IiMmfH/H6Lne/dJPesWgnJNlrtxhz+3znut5PjJK9m9Qq/eP8RIxirxCjjjjuoxL3twsN5NbgYqtZkz7GAkkxxXsOdxHZNgcEf3eCdxGEymO5/2cEH1pu9ZXwxtYt42MujEK1LJvP0/9/4k6z6bXW+LLvuxYFfqudolWOC26ZLg3YzicI2bMipVWOGcbv3sP+KSPd2saWuIxJsQJ3jBKfinLZ6Urw1jtYDQ5w7wJq8WscTNdHibp2ZfFOseVUg9t6Zv+D9/r98LlHwQj2wfMl8r6yLz4oT6Ctl74iVXmTfst7TQc548eKJ4Ygj4IRrbzjMTItFgrVvitPsJ2lTuZMSX+k8d6pMf4Xg9zF2eYNuVnxmDQD9Y4xNGYXzAYGoPakLeA8aynnTagBdjEj/iNb+6lj/dcllNkEo38vvSXGEUgSwuJfs+rttkt3gx9TLewtQIJqkn2kQVl6AzWOMTJI2R/gh3caheIkTErjJkujbs/v8e0CQ863lQpj2parBHTxkqj9is8Z0BR/w2rxPgAXzkx726GkjEYKwY1R14D55FHijQgbbSQIsYlnMXftxFSq72aV2grPRraSsQGIiKKpVFshQE+hpllI6k+5zPv/tpcIGZCyRiMGYNavZ8drfRUrmUjeTaRZTzLgAw3soZrPLlbWLWwKyezvts6MrQQkaDIpAFO4JijjpatUkT3pZ0Ek5jGH5wZwj4YEwb9Ql/oRVwB1LGONqppo5EImctFvHurb6t3MEvYp50XvTjAavrmOd4idgshH4wRZbjUV3gJlwE5mkgR0cxkmtjAflzM9j8+MrKs8MlSwoyo9CjtDraDwRCTAmmKRLRRzZvLcjmV4Xn6aVG907mUFSRpAWqoJ2ISj/INXrSv5NCjy2JOKU1HDFDEEPTBdkmRoomIcdSzL89ajhpoGYJ+c5X9Or/KgyQplBJGpIFHuLJsB2twEjsNVBt2So5VhAF2MwZBV63Q0eWdL9NNZxkD5T6/y1XkaSJJilcpUssu3L9DFYXPez7ttCNRx4QSQfD6bc58UKCSduZwNq//AadhcpfzxKyIeZPG3MmnQ1QEwbAqawrsN0bX+U+kaSJNA3naqKe1bN/2jL+kcsBVlyTtxJjEGaPtFzUIRqbnPcikKauMiTmryzY3+Uq/Y7Y0hcRAXjEx7l79mKQiCHYMZZ61dpdoHm0kaKAIJGGrvO2DZWokrRSIBvjaPFlEzxMRBsGOZlCq95/3dnLU8rttBE6CGC0UiFFFgfFlm+xgub9gcinR9kC0kSfPdG5wXgj7YEwYlKC/kcfJEucp99gqcFZSyQbipCiyiVOYUqbQmh7BfeYGPG1SKyLjtivbaxCMMY+ZEmMmSvOydPaiM82LE0yLFVslxAyCYKgNQkn/JO3UIjFu7fbOIi9nORKjkVYijmfBcO9vEATb76tihYhT/GOXkvxyU2LKKjFyr27vBkEwSr3JhJnS1Iwz/JSXe7e3e5lvs1LEmU4UD+xnmswgCEa4he4nZpzgziImS73laVNGZkrZc97hn0PIB8GIsN339DkOoo0XeIn1pKlgHTEKbH5gAGJkOYyTOT60jgfBCDEIobjMGdEj/pWFLOIVlpChgFRRyxSms4ADmRsCPghGjLKE44s2Uz36ng8KgiAIgiAIgiAIgiAIOlnez+7a1aFbNwhGs5X9CuHnQqAHwY6o3kV9BneYWGyolDVdVjCWLXMZG4mR443Ra1OarHJKBCt8hDXUMZvXshgUhnuDgyB4/W7wLPcwJ2Lcw7y5Uyl+pW9xotVWWWWtp/hfoYQPgtFtmf/p/mLGWjFthXiS9wpwnwdZK6XZiTfPVXyAt4awD4LR7EJ3NllKfJ4U68S833Olv/Wt5s2bM2PahJSmJ/8nnwlhP4TCPX0wiNZ4Nj9hJVXMJ8ULLCZNE9DKGu7kB9xJxH5MYRnP0k6qNH3o8wPObBgEwYiw1OtdIM72Mpe4zINNmDBpxpRvdZY4xW/6hHCDu4pJ02KtsZBeJQhGq+X+u8f6o1IIn1aa3yhm3BpxrpeUuu4e83AzpkwamTfpdSHog2D02tLf/nf3M2NWzJgSp/j5jtC+x0ONREyZsMYbQ9APoTJPdhGMPVv65JeyghRNJEoTnJzOaR3LvEwDCXIkiNHORPLDvdFjSgj6YJBtGUH/PBU0AdJAG3N4O/t3DMRZwUsUiSjSDuxExXBv9JgSgj4YZHWl0H6W1cSpQNpJcQAzOi3zJGsp0FIK+l2pGu6NHlNC0AeD6vmOu/N1NBIjIgZUsIDdOw3FfYGIHAkqgEp2Z07IsjSEQtAHg2qXUvhe76OkaOZVJCLOrp2WWcZiWmihmSZSVDF9uDd6jAlBH5TF06WsyDGKJDmAnTq9dysbqKBAmgKt7M4uw72xY0wI+qAsVtBIkQiBAtO63LWv5FUKgEANu4c7+iEWgj4og0U+yyYsBb3MY+eOu/ZnXMgGimwO+vXMYGa4ox9SIeiDMljDYlqBiAjJdbmjf57lbA74IhE5dh/ujR1zQtAHZfAiLwMgMWAa07q8t6H0L4lxALOHe2PHnPCUXVAGj9NEDJCIiL2o7fRePc0kKJb+N4/K4d7YMScEfVAGj5Qq90ViROzbZZjtelqRInGgwCxmRQBX28QR7BTu7odAqN4Hg26pi2mniEiRiJlM6hTMzbRSQGLEgCwrhRv9NB/jKhaHB2+GQAj6YNDdwSYK5IiYhNQwvsu7eSBFjjbaiHELC/m+Z/ISMW6mabg3PQiC1+NCp5k1VkqHdZSP23kii6+7cylhZqW1YmQk5jw15MobIuGePhh0T7GBODEms471TKOO1x7Dgf3YmxW0k6aBIpU00U4Np3AOe4U7+iAYje73KGPGxAoTTvZr3crv1V7kzmLCvHUivsH/DmX8EAq/rcEgW+XDLCYJbCJFxKHM73SVLXNGBNd5Nw9ST463sx8nd7y/xknhigyCHd/m+/1lhomtgmCHt6wU5pvntV3hshD2QTAaDWzK6c1LrwrhHgRBEARBEARBEARBEARBEARBEARBEARBEARBEARBEARBEARBEARBEARBEARBEARBEARBEARBEARBEARBEARBEARBEARBEARBEARBEARBEARBEARBEASD4/8DLVktY/EMVYEAAAAldEVYdGRhdGU6Y3JlYXRlADIwMjUtMDYtMTVUMTc6MDY6MzMrMDA6MDB1MwZjAAAAJXRFWHRkYXRlOm1vZGlmeQAyMDI1LTA2LTE1VDE3OjA2OjMzKzAwOjAwBG6+3wAAACh0RVh0ZGF0ZTp0aW1lc3RhbXAAMjAyNS0wNi0xNVQxNzowNjo0MSswMDowMM4hhzAAAAAASUVORK5CYII=;" vertex="1" parent="1">
          <mxGeometry x="-799.24" y="300" width="146.24" height="50" as="geometry" />
        </mxCell>
        <mxCell id="6F1ASgsPQzpzGPw3t6Er-24" value="" style="endArrow=none;html=1;rounded=0;" edge="1" parent="1">
          <mxGeometry width="50" height="50" relative="1" as="geometry">
            <mxPoint x="-620" y="350" as="sourcePoint" />
            <mxPoint x="-610" y="340" as="targetPoint" />
          </mxGeometry>
        </mxCell>
        <mxCell id="6F1ASgsPQzpzGPw3t6Er-25" value="" style="rounded=1;whiteSpace=wrap;html=1;fillColor=#0050ef;fontColor=#ffffff;strokeColor=#001DBC;" vertex="1" parent="1">
          <mxGeometry x="-805" y="440" width="150" height="100" as="geometry" />
        </mxCell>
        <mxCell id="6F1ASgsPQzpzGPw3t6Er-27" value="Signal&amp;nbsp; Generator" style="text;html=1;align=center;verticalAlign=middle;whiteSpace=wrap;rounded=0;" vertex="1" parent="1">
          <mxGeometry x="-799" y="440" width="140" height="30" as="geometry" />
        </mxCell>
        <mxCell id="6F1ASgsPQzpzGPw3t6Er-28" value="" style="rounded=1;whiteSpace=wrap;html=1;fillColor=#0050ef;fontColor=#ffffff;strokeColor=#001DBC;" vertex="1" parent="1">
          <mxGeometry x="-580" y="560" width="150" height="100" as="geometry" />
        </mxCell>
        <mxCell id="6F1ASgsPQzpzGPw3t6Er-29" value="Signal&amp;nbsp; Generator" style="text;html=1;align=center;verticalAlign=middle;whiteSpace=wrap;rounded=0;" vertex="1" parent="1">
          <mxGeometry x="-574" y="560" width="140" height="30" as="geometry" />
        </mxCell>
        <mxCell id="6F1ASgsPQzpzGPw3t6Er-31" value="" style="shape=image;verticalLabelPosition=bottom;labelBackgroundColor=default;verticalAlign=top;aspect=fixed;imageAspect=0;image=data:image/png,iVBORw0KGgoAAAANSUhEUgAAAaoAAAEdCAYAAABdQCM7AAABOGlDQ1BpY2MAACiRY2BgEkgsKMhhYWBgyM0rKQpyd1KIiIxSYH/KwMrAC4SKDFqJycUFjgEBPkAlDDAaFXy7xsAIoi/rgszK/+Me87mY/26KQydH/dfyhZjqUQBXSmpxMpD+A8RJyQVFJQwMjAlAtnJ5SQGI3QJkixQBHQVkzwCx0yHsNSB2EoR9AKwmJMgZyL4CZAskZySmANlPgGydJCTxdCQ21F4Q4HA2MncztjQg4FTSQUlqRQmIds4vqCzKTM8oUXAEhlCqgmdesp6OgpGBkSEDAyi8Iao/3wCHI6MYB0IsdQcDg0kzUPAmQiz7HQPDnkUMDHzvEGKq+kD+bQaGQ2kFiUWJcAcwfmMpTjM2grC5tzMwsE77//9zOAMDuyYDw9/r////3v7//99lDAzMtxgYDnwDAATYYDRmWBURAAAAIGNIUk0AAHomAACAhAAA+gAAAIDoAAB1MAAA6mAAADqYAAAXcJy6UTwAAAAGYktHRAD/AP8A/6C9p5MAAAAHdElNRQfpBg8RDDpd4VrlAAABe3pUWHRSYXcgcHJvZmlsZSB0eXBlIGljYwAAOI2tU9ltBCEM/aeKlGBsY0M5MxxS+m8g5lrNTnajRMqTEIfBx/PDfebsPjoCRgcd6EG8goJk4HECUqQqKwZkZUQIMaRwIIDWYOY+yhz2GPBw4oWUFNgHs3KGhfv+JzSL2jPy+6AQlp2ZtJZZQ24WBlopwgwxQdTWgurh787cbyJecAhLUBJauayMBZ0VBoo6mfGy7iOpGkOwz+NiznfWBltzm+I+d6JXw5G3QZ4ebKqGI7YGzIx82QHAMpJohK/IdRkwy5sHFviNo6eaH4hMZPWxEFG6G1/hr2T/vyPtlcTVjO6ISZp1JylKEhUzoYlxaSnYOkkVwooZwYrtY2joofRrRo1Kb+MWmTcVxPvFDgnnaDdx3GSnfe+pNDlr7fOZl4da6yuH9gHbtJezTxlFnPbvivJN8j1eE2DraO/c1ZOH89SxCsl+koGCzowU0yixFB0GuzjmckypUxnCzPY93ReqEuLTkHgfQgAAAVd6VFh0UmF3IHByb2ZpbGUgdHlwZSB4bXAAACiRhVNbcoMwDPz3KXoEo6c5DsX2X2f62eN3ZWggkEnx5CVptau1kn6+vtNHPCIl8eqFFy9WPVs1dbGJcvy21Zpz5LgS2WRi3ciUly3+qO5ElNPRBsHPgGiRqpmysHUHkDIbNc7jRdzyQjkOJBCaGy9KIknswr8lQ0Nxwcm8gLP7eKg5iqgNCqfOE89xqCfOTAgQ3uvWBJ/sM9pCtheqQRDpQ8tVkYhpcjZGYB6jzXChQeFeAF8I3HAiFMKIp0bn4yUdQ8G6glYvxhqa2mE3vsM/q8jsmBhtGib2u/S/AR4Ei2YoL6a26iyhH/cWJDFJssYNFhRWXg+G96DAXEnTG9byqgELaO1Omt6B/h1VUatOsXFh9gYXbrrdoO7tCm5MLtwn6BmZl/TMRv28G/fVOO/1UbtvdiRH+PafG0y/2ZXVz62j8asAACsESURBVHja7d15eA3X/wfw98meIEVtQWKJtQhBUUVRa+1LdVH7VrooXb9oVZWfltJWVa2lkWrRkupCQxEqtFIUFWtCqKaKLkisn98fiSQ3uXfuJJm7v1/PMw+5c+6c7c6cOXNmzgBERERERERERERERERERERERERERERERERERERERERERERERERERERERERERERERERERERERERERERERERERERERERERERERERERERERERERERERERERERERERERERERERERERERERERERERERERERERERERERERERERERERERERERERERERERERERERERERERERERERERERERERERERERERERERERERERERERERERERERERERERERERERERERERERERERERERERERERERERERERERERERERERERERERG5BOToBZDsnTpyQ8PDwQtXxqVOn5PLlywgMDETVqlUd8ns5cuSIeHt7o1q1ai75e920aZPEx8cjMTERFy5cwMWLF3Hp0iV4e3ujTJkyWUtYWBjatm2LJk2auGQ+iWyFO4SLSE5Olr/++gtay4ULF7L+f+PGDQDAm2++iUmTJumq55iYGNm2bRvi4uJw8OBBpKen5wmjlEKVKlUQERGBBg0aoF+/frjnnnsM+R0lJyfLxo0bsWHDBvz8889ITU3NyscdRYoUQdmyZVGuXDk0bdoU3bt3R5s2bZzud7x06VJZsmQJ4uPjcfv27Xx9t2TJkmjXrh26dOmCQYMGOV3eiOyNO4ETmzRpksyaNctsg6GXnoZqypQp8tFHH+HcuXMFiqNp06YYNmwYRo4cWaDf044dO2Tq1KnYuHFjgeIvWbIkevfujcmTJyM0NNShv+lXXnlF5s2bh//++8+Q7YWFhWHChAl48sknbZavDRs2yOjRoxEcHIzg4GAULVoUgYGBCAwMREBAAHx9feHn5wcfHx94e3tDRHDz5k1cv34d169fx7Vr13Dt2jWkp6dn/Zueno60tDSkpaUhIiICX3zxhe709+3bVw4fPoyiRYsiKCgoa/H390dAQAD8/f2z0uLl5YVbt27hxo0buHHjBm7evIm0tDT8+++/JsvUqVPRv39/Hu+IjPbss88KgEItb775plja/ieffCKlSpUqdBx3lubNm0tSUpLF+HJLSUmRjh07GhZ/YGCgvPbaa7rjN9KqVaukYsWKFtNWunRp6devn7z66qsyd+5ciYqKkg8//FBefvlliYyMtJq3SpUqyfLly22Sty+//NKwOjC3BAQE5CvdmeENXRYsWOCQ3wWR27NlQ/Xwww+bDV+3bl2ZPHmybNq0SRITEwXIGOvasmWLjB07VooXL64ZX3BwsKxevdrqQWH16tVSokQJs9/v37+/fPbZZ7Jnzx45d+6c/PHHH5KQkCALFy6Uxo0bW81zt27d7HpQeumll8ymo3z58vLWW2/Jr7/+ajU9ycnJMmrUKPHx8dHM27BhwwzPGxsqIiqw559/3iYNlblGqk+fPnLo0CFdO3Pv3r014/T19ZWffvrJ4raWLVsmSimT74SGhkpUVJSu+FetWiVBQUGaaejXr59dDkyPP/642QZq7ty5BYo/MTFR6tatq5m3Zs2aye+//25Y/r777js2VERUMKdOnZJPP/1Uli9fLvPnz5epU6fKyJEjdV0qurPkbqhyH1jr1asncXFx+d6JBw8erBlveHi42W3GxMSIt7d3Vjg/Pz+ZOnVqvuOPj48XX19fzTTo6dkVRuZlRpOlV69ehsTZpUsXzbyFhITIwYMHDcvf+vXrZeXKlRIVFSXz58+X6dOny6BBg+7UY4GWEiVKyJgxY2ThwoX5Sufs2bOldevWBY7X399fHnjgARk4cKC88sor8v7778uxY8fYUBHZ2969eyU0NDRfDdWgQYNM1nXt2rVQO2+VKlU04x44cKDJ9rdt2yY5z5ZLlCghW7ZsKXAaMhs4i0vp0qVtdnDaunWreHl5mcQ3dOhQQ+Nr2rSpZv5q1apll4NvbGysVK9ePV+NRadOnQqdtmnTpumOr2TJkjJ06FBZu3YtGyQiZ5K5U+pqqN5++22Tz8eMGVPoHXrOnDmacSul5OzZswIAv/32m9x1111Z6ypXrpw1BlYYgYGBmmnIHOczXIMGDfLEFRkZKcOHD5edO3caEmdKSoqUKVNGM3+ZJx920a5dO90NR2pqqiHpstZA+vv7y4svvsjGiciZ3XfffVYbqnPnzkmxYsWyPuvevbshO/bx48etHrDmz58vANCmTZusz4KCguTAgQN2uUQWFhZm+EEssyGyuHh5ecmsWbMMiTfzspnmondszwh6LskppeSPP/4wJE1a46Hdu3eXkydPspEicnajR4+22lANGTIk629LY0cFVbt2bc34O3bsKLnvKluxYoVhafjoo4+sHjj3799vaJ6HDx+uq1fx3nvvGRJvpUqVNOOpVq2aXQ/WNWrUsJr3Bx980JA0tWjRwuz2x44dywaKyFWYG9DPufTo0SPrDjullCQkJBi6g1u6NTvnkvNZrcybMAxz5swZ3Zc/jdKsWTNdDVXmc1WFltngaS4//vij3Q7cR44ckeDgYKtpmjRpUqHSlJycnGccEIC88cYbbKSIXEl+Bpxtccv2mjVrdMfv5+cnp06dMjwNFSpU0Iy3T58+hsZZtmxZ3Xnes2dPoePOvLyluYwaNcquB++YmJg8jxjkXpRS8s033xQ4XZnPw5ks77zzDhspIlczY8YMXQdMpZShtzPfsXnzZt0HbVsdTK09d5T5kLCRdOc5JibGkLit3Sae2VjbVWaPSXMpUaJEvmYrucPc2Ny4cePYSBG5Ir0NldG9ijt++eUXXfF7eXnZpDcFAC1bttSMO/M2fsPkvHvR2rJjxw5D4rY2LpbZu7E7PXcCNmrUKF9p2717t/j7+5tsI/OmCiJyRXobqujoaJvs6Jlny1aXJk2a2OxAk3kXo8Ulc9onw2QeePUuhsgcl9FcDh8+bPeD+Z9//inWLr0CkBEjRuhKW2pqap45E/Pb0JH78XJ0Asj2lFJo3769TbZdpUoVXTNSd+zY0Wb5K168uOZ6o2Yyv2PgwIG6wnXu3NmwOEuXLm01TFJSkqH51KNMmTJq1apV8PX11Qy3aNEiLFu2zGqD069fP5w5cybr77Jly2LdunV2zxcRGUhPj8oOZ6R2uwRmzsiRI+3Ws7kj81KqxaVYsWIFGpuxRM9NK6tWrXJYz8Paw99Axuz2Wo8KZN5ynrX4+fnZ9W5GIrIRPQ2VHQahNeP38/OzafyOaKiAjNk+cs5beGdp1aqVZD4MbZjY2Firefz0008delDv27ev1TRaeuYr86Flk2Xx4sVspIjcgZ6GaubMmQ5tqIx6nsgSRzVUd2zZskUWL14s69evl5SUFJvEpaehstX7qvJDz5yAPXv2NEnnL7/8IrmnwnryyScdnhciMoiehsoOBzDN+Bs2bOjWDZU96Gmoli5d6vB8/vrrr2Jt/kUA8tZbb2WltXLlyibrMqcFI8rCmyk8QJkyZTw6fndw48YNq2FEHH98j4iIUPPnz7cabsKECdi0aZO0a9dOkpOTsz4vV64cvvjiC0dng5yMj6MTQLan544xd47fmZ0+fVqSk5ORkpJispw/fx6XLl3C33//jUuXLuGhhx5ydFJ1Gzx4sBoxYoQsWrTIYphbt26hXbt2Jp/5+vpizZo1KF++vK47SclzsKHyANZuHXb3+J3Jxo0bZffu3fjpp5/w008/ISwszNFJsolFixapyMhI2bt3r+7vzJ49Gy1atGAjRXmwoSKysQ8++ECWL1+OPXv22PR5MmezZs0aNGrUCH///bfVsAMGDMAzzzzDRorMYkNFZAMxMTGyfPlyfP3113j66ad1fScoKAjNmzdH9erVUb58eZQvXx4hISEoX748fvvtNzz++OOOzla+hIeHq5iYGOnZs6fV8bNhw4YhKirK0UkmIlvQc9ef0e9jMkMzfqNf0Z6bM931N3PmTKtv5b2z+Pv7S+vWrWXKlCkSFxenmUY9d/0tWbLE8XdTmKHnVTC2eMEluQ/e9UdkgAULFkhISIi8+OKL+PPPPzXDhoWFYfbs2bh27ZraunWrmjx5smrVqpXbXvZ6++23VatWrTTDnD59Gh06dGBjRWaxoSIqhKSkJGnbtq2MGjUK586d0wzboEEDREdH4/Tp02r8+PFu2zCZU79+fathvv/+e7z66qtsrCgPNlREBRQXFycRERH44YcfNMP5+vpixowZ2Ldvn+rfv79HNVBAxp2O8+bN0xX2zTffRGFetkjuiTdTEBXADz/8IJ07d8aVK1c0w1WtWhUrV65E06ZNPa6BAjJ6nI0aNcLt27d1hRcRDBgwAElJSaJ3Zn5yf+xREeVTbGysdOnSxWoj1bRpU5w8eVJ5aiMFAL1798bFixez/g4ODkbz5s01v3Px4kX07dvX0UknJ8KGiigftm7dKt26dUNaWppmuGrVqmH9+vWOTq5DDRgwwOSBX29vb3z++efYuXOnioyM1PxuQkLCnbcaE7GhIsqPwYMHIz09XTNMqVKl8N1336FMmTIe25OaO3eu5H4u6t1330Xnzp0VAKxevRp33XWX5jYWL14MZ5holxyPDRWRTmPHjjWZQNWSGTNmoHr16h7bSG3fvl3Gjx9v8tlTTz1lMvNEtWrV1NKlS61ua8yYMdi7dy8bKw/HmymIdEhNTRU98/LVrVsXw4cPd8pGat++fbJ69WoAGbOU22LKot9//10aNmxoMtt7hw4dMG/evDxx9enTR40bN07mzJljcXvp6eno06ePo4uOiAqDM1PYZ2aKqVOn6pptYt26dTbJa+Z2CzUzRbdu3bLCRkRE2CSdzZs3N0lTrVq1rMbTrFkzq3nLTDt5KF76I9LhTk9ES3BwMHr27GmT3tQff/xR6G3Y+n1VY8aMkZ07d5qUx7p166x+b9WqVbj77rs1w6xfvx7Tpk1jY+Wh2FAR6XDgwAGrYTp16mSz+K3NeuFoy5Ytkw8//DDrb6UUoqKiUKtWLasNd1hYmIqKioJS2kFfe+01bNq0iY2VB2JDRWTFli1bRE9v5IEHHrBZGpy5oUpISJAnn3zS5LPXXnsNPXr00N27fOihh9SECRM0w9y6dQuPPfYYUlJS2Fh5GDZURFacP39eV7gKFSrYLA0//vijo4vBot69e5vcst+5c2dMmTIl35dAp02bplq3bq0Z5vz583j44YcdnWWyMzZURFboefEfABQvXtwm8R85ckQOHTrk6GIwq3379nLq1Kmsv4ODg6H1CnprVq5ciXLlymmG2bVrF55++mn2qjwIGyoiK0qWLKkrXM6pgoz05ZdfGrKda9euZf3fy6vwu37//v0lNjbW5LOZM2eiYsWKBb6hJCQkRK1cudJq+j744AN8+umnbKw8BBsqF6dn7ETvhKC2Yuv4bX03W5UqVXSFS0xMtEn8CxcuNKQc/v3336z/lypVqlBpGj58uERHR5t81qRJE4waNarQdz22adNGTZw40Wq4ESNG4ODBg2ysPAAbKhdnbc45vWEcnUZn3n6jRo2Unh7I2rVrDY97ypQpkpSUpCustRc25rzFPSQkpMBp6tOnjyxevDjP54888ohh+Z46daqyNnntlStX+DAwkSsYPXq01YclY2JibHbWmZiYaDX+tm3b2vSst2PHjlbTcPLkyUKlIefDslqLtVfK58fx48clMDAwa9uZLxW0uGSWg5assC+//HK+07l3716pUaOGxfh37dplaD0nJiaKUspqmevINxE5Ur169azuyOPHj7fZjrxgwQKr8ZcoUcKmB5JSpUpZTcPcuXMLlYaNGzfqaqhCQ0MNyeu5c+ekWrVqWdtt0qSJAEDp0qUtxu3v728x7hUrVpiEzcyPLqmpqTJy5Ejx9vbWzPuaNWsMr+cyZcroKvfOnTuzsSJyRmPHjtW1E3t5eYkt3pq6f/9+KVq0qK40dOnSxSYHkh49euiKv0aNGpKQkFCoNPTq1UtXXL179y5UPH/++afkPAFRSkl8fLwA1nvQo0aNMht348aNs8KULFlSV/ri4uJk0KBBJr06raVu3bqG1vH//vc/XfHeWRo2bCjr169ng+WGnHLyTMqQnJws586dg4jg5s2bSEtLw6VLl5CUlITY2Firr0DPKTAwEL169UKzZs0QGhqKokWLIiAgAN7e3lBK4b777jP7W4iPjxcRwe3bt5Geno6rV6/izJkz2LdvH9asWZOvO90aNmyI7t27Izw8HKVKlUJgYCD8/PyglELx4sVRu3btPGlITEyUS5cuQURw/fp1pKWl4cKFCzhx4gTWr1+PPXv26I7fy8sLvXv3Rp06dRAeHo5y5crB19cX3t7e8PHxQfPmza3uD9WrV5djx45ZjWvcuHGYM2dOvvev7777ToYMGWIynvTee+9h7NixCgBSUlKkWrVqJnfw5RYdHY2cr7wfNmyYLFmyJGv9Cy+8gFmzZmWt//nnn+Wff/5Bamoq9u3bh/j4eCQkJBRo7K9ixYoYPnw4BgwYgPDw8HznPzY2VhISEvD5558j57us8qNOnTpo2rQpatWqhfDwcAQFBcHX1xd+fn6oUqUKQkNDedwjMsqzzz6brzPKwixbt27NcyZ64sQJu8XfqVMns2fCXbt2tVsajhw5YvVsPCUlRSIjI3Vtr1KlSvLVV1/pOsM/ePCgPPHEEybfV0pJ5qVVE88884zVuFu0aCEDBw6U8PBwk8/DwsLybC8kJMTwssycLDnfbJGWnMvkyZPZ43JBfM0HAXD8nYGu4s7Z+ODBg2X58uWat4SfOnUK3bt3R8eOHaVdu3aIiIhAREQEQkJCFAAcOnRINm/ejK+//hr16tUz2Za3tzeWLl2KQYMG5Tn7nzt3rmrVqpXExcVZjHvHjh3YsWOHyWdFixZFdHQ0WrZs6ehiJMoXNlREBbBs2TK1b98+mTBhAr799lvNsBs3bsTGjRuz/g4MDJT09HTUqVPHbPhGjRphxowZaN++vcVLVHFxcapp06aye/duXektU6YM1q1bp+vyJpGzYUPlxCIiIuDt7Y2AgIA8S2BgIPz9/bMWPz8/+Pj4wNvbG0DGBJ43btzA9evXce3aNVy7dg3p6elZS1pamsnf5oSHh6vQ0FA5f/682TQEBASYpOHOeI+Xlxdu3bqFW7duWYw/9xIREYENGzaYTYePj0++ysDLywsiglu3buHmzZtZ8edMQ+7833333ahZs2a+DuINGjRQALBz506JiorCunXrdE0ea6n3GhkZiddffx09evRQ7du3t7qd3bt3qxkzZsicOXOQmppqNkxQUBCGDBmCefPmWXwuqX79+vj3339RrFgxBAcHIzg4GMWKFYOfnx98fX3h4+MDX19fKKVMyvRO2V29ehVXr17FlStXcOXKFVy9erVgP/jMtFy4cAGBgYEIDAy0+JvLmTalFG7fvp31e7tx4wbS09Nx+fJlXL58GVeuXMHly5dx9epV1KtXr8BpI8fh2RWRgXbu3Cnff/89fv31Vxw8eBDHjx/XnJmjSpUqaNmyJfr06ZOv2cZzW7JkiRw4cAApKSkQEVSoUAHNmjUzuamCyFXxR0xkY8nJyfLPP//gn3/+wdWrV1GkSBGUKlXK7F2ORERERERERERERERERERERERERERERERERERERERERERERERERERERERERERERERERERERERE7oYvbiOHk0NHBGvWA/5+wMPdocIr83fphBxdT3LkuODoSeCvC/n7opcXEFIWqkNrm6ZXvvxG8O9/gJ8fEBgAFC0CFAnK+LdoEaiqlbLilxPJgrR04GoacPVq5r9pQFo64O8H1a/gb3smIgPJjz+JPPS4CMpkL6Vri6PTRaacoZ5kV4KIVznTNOR3mTnPZmmWnoMKl7bcy/jXuB/k4OXoBLgy6TNUpH4bkdY9ReL38Ielk8RuE2ndU3B/V+DbTaYrz1+AfP29Q8pSPlgi8ujIjIPyjPdFklM8uk6dqp727ANu3y7cNqa/Z7v0/bzP2O2dOWe7tJJnkCPHRWo2Nz0DGj7Oow9qekjMBpEmHbXPJFVZkcRj9j1bP3xUpNb9edNSob5IylmPq1dnrCfZ+qOIf8XC91Smv2uTNMvI543rTXmHiHy21uN+d1p8HJ0AVyOT3xbUbwOkXzNdcfmKo5PmtGTlWsH0d4EeA7UDKgW8MAaqVnX7Xp/vMxRIPJb387PngHcX2jUpjuTM9aRa368AQJJOZ4wD/XUxY6zqr4sZy9zFGf9aM2eBbdK38B0lZ88JklOAlLPAr78BH38GnEvV/mKxokDPzkCzRkCVMKDU3VBNIhUe7WWvoiV3IXsPiLz0RsYZtqWzoEdG8AwoF1kcLVK9mb6zyE6Piuz82e5lKEuitdP16Ei3r1dXqCereQipp7/HMutD+/UEu/Y3nwb/iiLPTXK6ciQXIz/+JDJllvlLQmyoNMn7i0RCI62XmSor0nuISMJ+h5WdDH1OO40DnnLbenWletLMx5Hj+bu0Vq6ufS8t547fq5zI5u1OWZbOyqNvppC4eJFBz2QMoPcYKNK4g8hd1URQJmMAefLb5i8JkVky432RsnUEz07MuPxhiY8PMOBh4NB2qC8/VqpRfcfdinvrlvb6Dq0dljRbccl60rJ1Z/7C//En5P1F9msoAgNM/37teagHWzpnWZLzkYVRxg2AenCPSl57S6REDetl5F9RZNQLIidPOU1ZyccrLae3XV+nSacheXXhetLM12OjTNO/Yo1IYJh2His2sEveJDnFNN5iVV2iTJ2NR/eodCkSBAx+FIiLAZ4b6ejUOBV54XWRolUEb7wDXPrbcsAiQcC4UcDJn6EWzFI5H3x0NDXkMYXHzAxcP9EXatMap0lnYbhDPWnK2aPy84V6oq/CiAHa3znzO+Sj5bZvNLb+aPp3r4ccUEDk0mTZZyLFq4uUri0SFinSqL1I58dERr8ksjhaZO8Bkx+yjHvV43tUkpwiMuZlkYBQ62fmd1UTmTjdJcpFjp0UWfCJyLLPRI6ecIk0a+bHTespTz4Tj5nmpUU3AQA587uIXwXtfFduZPM8y+BnTeNc+61LljO5EE9uqOTIcZHBz4r4lLd+4Ctd22bPq5A2T6sn+Wi5aZ4m/V9WfuTJF62XwdJPbZp/qdzI5CYKR5cXeQBPbKhk30GRfiP0TV9Tob7IuwvdshycnafWkzw60jRvm+KyG6rkFBFfK72q6s1sN61S0mnTuBq0dYsydwSOUZFZEr9HpGt/QYO2wKoY7elrwisDC9+BOrtfqedGusa4hpvw+HraFp/9fz9fqHatsvKlKocqDHhY+/vHTkJWrLFNA7It192IrZs7rJhcHRsqMiGbt4u07S247yHg61jtwHVqAis+hDrxk1IjB7jHgc9FsJ4yxqdMZn64NzJvoP89C3h7a29o+ru2SWDu2+bbtLBr+bgTNlQEAJD134s06yx4sA/www7twI0bAGuXQR3artQTfd3mwOcKWE85bLXeY1HVq5q/qzOn345CVsUY36vKeceflxdUj07uVwd2wobKw8nn60TqtxF0ewLYlaAduNV9wMbPofZ8r1Svh7jT2RHryYzct363vt98uAnPZbyTSsu0dw1NmiSdzpj37476dexePO6EDZWHko9XitS4T/DISGD/Ie3AndoC27+CiotRqmMb9z3wOSHWk4bcz0+1f8BsntU9NRT6dtPe1v5DkHXfGderyj0+1eb+gm2HALCh8jgyb6lIpYaCIWOBoycsB1QK6NMVSIiF2vCZUi2buf+Bz4mwnqyUT+IxwR9/Zn9gbnwqp4nPZZSVljfnGJfAPJcl2VAVBhsqDyEz52VMxvnUK8CpM5YD5pzf7Yulzju/m5tiPemkY3wqJ1W/jkKPTtrb3LMP8u0mY3pVOXtUXl5Q3Tt6Vv2Q47jic1QyZZZISfeb361AZfH19xlv7h0xXuTFKSILo5zmlRWsp3yWV+7np2K3WS0P2bPPevk271Locs3z/FSj9h5dV2RnrtRQyctTRYpVtb5jFqksMu5VkbPnnCr9hpbFmJe1H/xs2E4MHZ/IT9pYTwUi5epml41fBd1lIg89br2sczw0XKC0Lf/cdHvPT2adkf04e0Mlp8+IPP0/6zNH35nfLcd0M+5I1n4rElRJ/wz49pikFKynwsozv9/9XfU3VPF7rJd5656Fa6iGjDXd3vrvWX9kP87aUMnREyJDn7M+XYybzO+mq0w+Wi7iHWKa91r3izwzIeOSX4tuecvGq5zIF1/bbkod1pMh8szvl88JdaVdX+vlHxdf4LKXKo2zt+Mdwjok+3K2hkoOHM546aOe+d0qNnCb+d2slsvqr/I2QGZ6JXkaMpQRCQg1vIxYT8YqyPiUyfe37bReD+0fLlAd5Hn/VOMOrEuyL2dqqGTidDF7oM29hDcRWRjlMTuLJB4zHfMJqiSycYvZ/Ev5CPNl9s58w8qL9WS8go5PmWyjVQ/rdbIrId/bzjM+9cLrrFMD8PZ0FySbtwumvav9GvU6NYHo+W43v5tVA54C/ruc/ffsN2Dx4VdLE7juO2hIUlhPxpPDR/P3/JQlr463Hmbq7PxvN5+3zZM+bKhc0Z592uurVgK+XwXVv49HHfjk45WCn/dlf9C9I9STgyyXQc4DXk45JzotDNaT8QxqCFT7BxSaNdIO9E0sJGF//npEOad18vaG6tqBdWsANlSuqE0L7bnLTp4Cqt4LGf2SSNJpz7n0MPH/sv9f+m6or6IsHiQkarXlcilfzpj0sJ6Mp3d+Pz309KryMVuFJKcIkk5nf9Cwnp0Lx32xoXJBqkmkwtcrgJCylgNduw7MXwZUbwYZ9IxI4jG3PhDKss8Ev/+R/cGogdpfiP7C8roGdQ1JE+vJBnK/f8rC/H56qC7tFRpGaAda9x3kwGF9dbKN0ybZChsqF6UeaqfUuQMK82YAlSpaDnjzJrD8c+CelpCHh4vsPeCeB8IPlmb/38sLGDFAO3zsNsvr7m1gWLJYT8bJMz7VuEHhN2qtVyUCvKlzrGorJ6IlJ+BMd/3lSdvHK0VqNtf3YGuX/k4zdZAheT+eZJq/rv018ybT3rVcNqGRNi0XT66nwpL5y0zLZ8I0Q8pG6j2gXQ9e5UQOH7U+RVPO56d8yrPeDMQelZtQQx5T6shOhc8XWn/3zTexQPMukDa9RDZvd/0dKveZ7JODtMMvXmF53eBHbJpUj66nwjJyfCqnSeO019++DUx/TzMIx6dsiw2Vm1GP9FRq/xaF9Stg9a6mLT8CD/aBNOvs2tO8eOUYpgiroHmnlWzcYnpAyUkpYOjjdkmyR9ZTYeUen+rQ2pA76tQjPRVqVdcOtHIt5HiS5bLfxtfO2xIbKjelunVQatd3Cpu/ANpa2Wl2JQDdnoDUbyPy+TqXOxCqoY8rzJycMd6wdpl24EUavakHW0JVCbPr7cSeVE+FYZPxqZwmPqe9/uZN4P80elV8foqchTOPUVlNe/wekW5P6Bsbqdlc5OOVTp2fApeD1jx7K9c6PM+sJwvlYqPxKZM4wptol7dvBZHkFPOznFS9l+NTNsQelYdQ9zVWav0Khf1bgEd6aD/fc+Q4MGQspFJDkXlL3Wank1kfCm7cML+yZHGox3o5/OFM1pMFthqfymnCWO31N24Ab83N87EkpwhOnsr+oHF9BxQQUSZX7lHlycuR4yJDxor4lLd+5h5ST2TWhy6VP7N5rnW/5TyOneiU+fPEejJbDmXrFHp+P13xVGqoXcb+FfO8E0w+WWUa5pU33bIOHIk9Kg+lalZT6uP3FE78BDw1FAjwtxz4XCrwwuuQu2uKvPGOS+6Esn2XIPGY5QDD+js6iWZ5Wj2ZI4ePClLPZ39g9PhUTq88q73+2nXg7Q9MP+P4FDkTd+pRmc3fi1NEilaxfuYeHO5yZ40y6BnL+WnS0bXy4sb1ZDa/dhifMomvQn3tcg0MM+1R5Ryf8rVdb8+TsUdFWdTMyUpdTlKY/AJQorjlgP/+B8x4HxIYJvLsRJGUs86/c67+yvI6O92SbhS3ridz7DE+ldNLT2mvT0uHvDhFAEBOneH4FDkXd+9R5cnvW3PFZGzA0uJXQWT4ONF8zsSR+ch9Rp5zKVLZKdOcr/y5ST1ZzF/OvNmpx2K1PItWyWioco9P/c+2vT1PxR4VWaRefkap1EMKc6cDYRUsB7x+A1gcDdRsDuk/WuRgonPtrIujLa97tKejU1doblNPZshvucanDJyHUdMLY7TXX74CmThdOD5FTsfTelR58r8kWqR6M+tn7qqsSK/BIj/vdXiZyC+/aqd19y/a8wLuPySyZr3D85GvPLtgPVnMy4cf23V8yiTuUrW0y++uaiIla3B8yg7YoyLd1LD+Sh3bpbByAVCvtuWAIsDab4F7O0I6PiISF++4HXjJp5bXNagL1bSh5emW1qwX1G8D9B0G6dDPZQ5CLllPlmx14Kszxj2pvf6ff4GLf2f/ba/eHpEWT+9R5SmPmA0iTTvpm0WhZXeRDT/YvYykeHXLafrwY+3e1AM9s8PWvt9l69cV6sli2h0wPmUSv9bvJ/dix96ep2GPigpM9eik1O4NCrGrrb97Z/suoNOjkMYdRL78xj4D4p+sEvz9j/mVRYKgxgyx3Js6clxMJhq97157JNkmnL2eLMkzPuWIO+rGjtAflhPR2gwbKio01f4BpbasVfjxa6BLe+3Ae/YBvYdA6rQUif7CtgfCVTGW1/Xrof3d3Ddg9O1q06Tag9PWkyU/bDf92wFvzFVTXlIoVtR6wEK+bZi0saEiw6j7myj1TbTC3s3Aw90zXpthyaEjQP/RGROBLlphmwPhpjjL6wb20/7uss+y/185FOqhdm5zEHK6erLky29M/3bUHXVPD7Me5t5Ix6SNKDd5bpLl69P9PG+Myho5fFRk0DP65qmr2EDk/UWGlaGcPGU5Litv8ZWFUabh3XT+vKz8OrCeNNPlVc7kDkWHllGRytrlMun/3Po34mjsUeXHv5c11v3n6NQ5HVW7hlLL5yoc2wWMHgz4+1kOfOZ34NmJkMYdjNnhz6VaXvfAfRZXSdJpwQuvZ39QsTzUC2PcpjdljkPryQLp0l9w+3b2B36+ji0ka2+NdsBlSSKzpHEHy2dUlRvxjEoHeX6yWD073fJjoctSDh+1vP0psyxuX1r1MA37ySqPrFd71ZPZuF+cYj6+rbaJT3e6AkItzvjhyHR5AvaodJKnXhHs2Wc5QHIK5NGR/MFaod6ZotSVZIVXxwPF7zIfyLvwP0tVu4ayONO4hcFxeXGKIC7H6867tIca2M+te1OW2KuecpLF0SKVGgpmzjMfoP8YyKoYx+1jIwaY/7xpI4clyVN45E6Yk7wzP/sV1yIZL0e7cRO4fAX46yJw8hRw9ARMLkNoUQqoWgmoXhUoVRIILgb4+gC+vtmD1kGBGXcTEeT/3hO8twhZddDmfqgtaw0pG+k/WhD9Rd4VI56AWjTbJA7p0l/wTWz2B2EVoE7vZR1lMrqeZN5SwW9HgdTzQNJp4NffYPGllrlVLJ9xq3pIWaBcGaDzg1BNIm1eV5JyVhDeJGMqqpxeHQ819RX+VmzI4wtX6rYSHEy0b6Qli0NdPOrxZZ+TbN4uKB4M1ai+YeUiKWcFzbsCKWdNV5QqCSyfm3HyEBcPrFgDJKdkry9XBvh+FVTEPayjXIyoJ5k4XTDtXeMSVTkUKjnBLnUlo14QLPjE9MPNX0A92JK/FRvy+MJlQ+Xe5PBRQYtuwIVL+r4QXjmjkQqvzPqxEXl0pOCzdcZtsGY1qCM77dNQJZ0W1Lwvu1cVGACVdpq/FRvzcXQCnIK/HxAQkPH2VH8/wN8/4y4jP7+Mf319sy/f+foCPt6AV+b1+Vu3gJu3Mi8ZZl42vH49+9/rNzLeCnrtWsa/6elAxD3A1qOOzrVHULVrKEnYLxg7Cdix23LAIkHAcyOhpk1QCK/s6GS7t64dMuYYvHkLCArMWAIDMv8flP2Zn2/GfpSWBly+mnE5/s6Snp6xP5UsDrz8NDB0Z6GTpYeqEqZk1oeCqbOBK1eB4U8Ac6c7ukTdHs8EyGNIXLzgux+AYyczLvUVCQLq1gLq1NScTomIiIiIiIiIiIiIiIiIiIiIiIiIiIiIiIiIiIiIiIjIY/FpfBcmv/4mOH0GSEt3dFIKr0gQEFIWKrKe2/0mWU9EhcMfmwuSU2cEzbsAZ885OinGq18Hav8Wt/hdsp6IjMEXJ7qib2Ld8+AHAPsPwVZvjrU71hORIdhQkfPR+5JKcizWE9kJGypX1L0j3PZVFE0bus9L6FhPRIbgD82FSXKKIOWsewzSFysKhJaHqlje7X6TrCciIiIiIiIiIiIiIiIiIiIiIiIiIiIiIiIiIiIiIiIiIiIiIiIiIiIiIiIiIiIiIiIiIiIiIiIiIiIiIiIiIiIiIiIiIiIiIiIiIiIiIiIiIiIiIiIiIiIiIiIiIiIiIiIiIiIiIiIiIiIiIiIiIiIiIiIiIiIiIiIiIiIiIiIiIiIiIiIiIiIiIiIiIiIiIiIiIiIiIiIiIiIiIiIiIiIiIiIiIiIiIiIiIiIiIiIiIiIiIiIiIiIiIiIiIiIiIiIiIiIiIiIiIiIiIiIiIiIiIiIiIiIiIiIiIiIiIiIiIiIiIiIiIiIiIiIiIiIiIiIiIiIiIjLG/wPl5OYGOBdw0wAAACV0RVh0ZGF0ZTpjcmVhdGUAMjAyNS0wNi0xNVQxNzoxMjo1NiswMDowMCkBX/kAAAAldEVYdGRhdGU6bW9kaWZ5ADIwMjUtMDYtMTVUMTc6MTI6NTYrMDA6MDBYXOdFAAAAKHRFWHRkYXRlOnRpbWVzdGFtcAAyMDI1LTA2LTE1VDE3OjEyOjU4KzAwOjAwX3a9xwAAACh0RVh0aWNjOmNvcHlyaWdodABDb3B5cmlnaHQgQXBwbGUgSW5jLiwgMjAyMX297iYAAAAXdEVYdGljYzpkZXNjcmlwdGlvbgBDMjdGMzkw1kRNEwAAABd0RVh0eG1wOlBpeGVsWERpbWVuc2lvbgA0MjaBowi8AAAAF3RFWHR4bXA6UGl4ZWxZRGltZW5zaW9uADI4NXvHLEgAAAAadEVYdHhtcDpVc2VyQ29tbWVudABTY3JlZW5zaG900+CyfAAAAABJRU5ErkJggg==;" vertex="1" parent="1">
          <mxGeometry x="-772.8399999999999" y="470" width="89.68" height="60" as="geometry" />
        </mxCell>
        <mxCell id="6F1ASgsPQzpzGPw3t6Er-33" value="" style="shape=image;verticalLabelPosition=bottom;labelBackgroundColor=default;verticalAlign=top;aspect=fixed;imageAspect=0;editableCssRules=.*;image=data:image/svg+xml,PHN2ZyB4bWxuczp4bGluaz0iaHR0cDovL3d3dy53My5vcmcvMTk5OS94bGluayIgeG1sbnM9Imh0dHA6Ly93d3cudzMub3JnLzIwMDAvc3ZnIiB2aWV3Qm94PSI0MTAgLTE3MCAyNDAgMTAwIiBoZWlnaHQ9IjUuODI1MjQyNzE4NDQ2NjAxIiB3aWR0aD0iMTIuODkyNTYxOTgzNDcxMDc0Ij4mI3hhOyAgPGRlZnMvPiYjeGE7ICA8ZyBpZD0iQmFja2dyb3VuZCI+JiN4YTsgICAgPHJlY3Qgcnk9IjAiIHJ4PSIwIiBoZWlnaHQ9IjEwMCIgd2lkdGg9IjI0MCIgeT0iLTE3MCIgeD0iNDEwIiBzdHlsZT0iZmlsbDogbm9uZTsgc3Ryb2tlLW9wYWNpdHk6IDE7IHN0cm9rZS13aWR0aDogMjsgc3Ryb2tlOiAjZmZmZmZmIi8+JiN4YTsgICAgPGxpbmUgeTI9Ii0xMjAiIHgyPSI0OTUiIHkxPSItMTIwIiB4MT0iNDIwIiBzdHlsZT0iZmlsbDogbm9uZTsgc3Ryb2tlLW9wYWNpdHk6IDE7IHN0cm9rZS13aWR0aDogMjsgc3Ryb2tlOiAjMDAwMDAwIi8+JiN4YTsgICAgPGxpbmUgeTI9Ii0xMjAiIHgyPSI2NDAiIHkxPSItMTIwIiB4MT0iNTY1IiBzdHlsZT0iZmlsbDogbm9uZTsgc3Ryb2tlLW9wYWNpdHk6IDE7IHN0cm9rZS13aWR0aDogMjsgc3Ryb2tlOiAjMDAwMDAwIi8+JiN4YTsgICAgPGVsbGlwc2Ugcnk9IjM1IiByeD0iMzUiIGN5PSItMTIwIiBjeD0iNTMwIiBzdHlsZT0iZmlsbDogI2ZmZmZmZjsgZmlsbC1vcGFjaXR5OiAxOyBzdHJva2Utb3BhY2l0eTogMTsgc3Ryb2tlLXdpZHRoOiAyOyBzdHJva2U6ICMwMDAwMDAiLz4mI3hhOyAgICA8cGF0aCBkPSJNIDUxMCAtMTIwIEMgNTMwLC0xNjAgNTMwLC04MCA1NTAsLTEyMCIgc3R5bGU9ImZpbGw6IG5vbmU7IHN0cm9rZS1vcGFjaXR5OiAxOyBzdHJva2Utd2lkdGg6IDI7IHN0cm9rZTogIzAwMDAwMCIvPiYjeGE7ICA8L2c+JiN4YTs8L3N2Zz4=;" vertex="1" parent="1">
          <mxGeometry x="-559.16" y="590" width="108.33" height="50" as="geometry" />
        </mxCell>
      </root>
    </mxGraphModel>
  </diagram>
</mxfile>
